<svg width="31" height="33" viewBox="0 0 31 33" fill="none" xmlns="http://www.w3.org/2000/svg">
<path d="M10.2067 30C9.54605 30 8.98053 29.765 8.51009 29.295C8.03966 28.825 7.80444 28.26 7.80444 27.6C7.80444 26.94 8.03966 26.375 8.51009 25.905C8.98053 25.435 9.54605 25.2 10.2067 25.2C10.8673 25.2 11.4328 25.435 11.9032 25.905C12.3737 26.375 12.6089 26.94 12.6089 27.6C12.6089 28.26 12.3737 28.825 11.9032 29.295C11.4328 29.765 10.8673 30 10.2067 30ZM22.2178 30C21.5571 30 20.9916 29.765 20.5212 29.295C20.0508 28.825 19.8155 28.26 19.8155 27.6C19.8155 26.94 20.0508 26.375 20.5212 25.905C20.9916 25.435 21.5571 25.2 22.2178 25.2C22.8784 25.2 23.4439 25.435 23.9143 25.905C24.3848 26.375 24.62 26.94 24.62 27.6C24.62 28.26 24.3848 28.825 23.9143 29.295C23.4439 29.765 22.8784 30 22.2178 30ZM9.18572 10.8L12.0684 16.8H20.4761L23.7792 10.8H9.18572ZM8.04466 8.4H25.761C26.2215 8.4 26.5718 8.605 26.812 9.015C27.0522 9.425 27.0622 9.84 26.842 10.26L22.5781 17.94C22.3579 18.34 22.0626 18.65 21.6923 18.87C21.3219 19.09 20.9166 19.2 20.4761 19.2H11.5279L10.2067 21.6H23.4189C23.7592 21.6 24.0444 21.715 24.2747 21.945C24.5049 22.175 24.62 22.46 24.62 22.8C24.62 23.14 24.5049 23.425 24.2747 23.655C24.0444 23.885 23.7592 24 23.4189 24H10.2067C9.30583 24 8.6252 23.605 8.16477 22.815C7.70435 22.025 7.68433 21.24 8.10472 20.46L9.72621 17.52L5.40222 8.4H4.20111C3.8608 8.4 3.57553 8.285 3.34532 8.055C3.11511 7.825 3 7.54 3 7.2C3 6.86 3.11511 6.575 3.34532 6.345C3.57553 6.115 3.8608 6 4.20111 6H6.15291C6.37312 6 6.58331 6.06 6.7835 6.18C6.98368 6.3 7.13382 6.47 7.23391 6.69L8.04466 8.4Z" fill="#E76C1F"/>
<circle cx="23.5" cy="7.5" r="7.5" fill="#FDEADC"/>
<path d="M23.312 12.144C22.856 12.144 22.44 12.076 22.064 11.94C21.688 11.804 21.372 11.612 21.116 11.364C20.86 11.116 20.676 10.836 20.564 10.524L21.812 10.056C21.876 10.168 21.964 10.292 22.076 10.428C22.188 10.564 22.336 10.684 22.52 10.788C22.704 10.884 22.94 10.932 23.228 10.932C23.684 10.932 24.044 10.804 24.308 10.548C24.58 10.284 24.716 9.952 24.716 9.552C24.716 9.264 24.64 9.016 24.488 8.808C24.344 8.6 24.116 8.44 23.804 8.328C23.5 8.216 23.116 8.16 22.652 8.16H22.268V7.176H22.616C23.104 7.176 23.556 7.232 23.972 7.344C24.396 7.456 24.768 7.624 25.088 7.848C25.416 8.064 25.668 8.328 25.844 8.64C26.028 8.952 26.12 9.304 26.12 9.696C26.12 10.2 25.988 10.636 25.724 11.004C25.468 11.372 25.128 11.656 24.704 11.856C24.28 12.048 23.816 12.144 23.312 12.144ZM22.268 7.944V7.008H22.652C23.268 7.008 23.736 6.904 24.056 6.696C24.376 6.488 24.536 6.196 24.536 5.82C24.536 5.604 24.48 5.412 24.368 5.244C24.264 5.068 24.112 4.928 23.912 4.824C23.712 4.72 23.476 4.668 23.204 4.668C23.028 4.668 22.856 4.696 22.688 4.752C22.52 4.808 22.364 4.896 22.22 5.016C22.076 5.136 21.956 5.292 21.86 5.484L20.648 5.04C20.768 4.704 20.96 4.42 21.224 4.188C21.488 3.948 21.796 3.768 22.148 3.648C22.5 3.52 22.868 3.456 23.252 3.456C23.764 3.456 24.22 3.552 24.62 3.744C25.028 3.936 25.348 4.204 25.58 4.548C25.82 4.884 25.94 5.272 25.94 5.712C25.94 6.08 25.848 6.404 25.664 6.684C25.488 6.964 25.244 7.2 24.932 7.392C24.62 7.576 24.264 7.716 23.864 7.812C23.472 7.9 23.052 7.944 22.604 7.944H22.268Z" fill="#E76C1F"/>
</svg>
